<svg xmlns="http://www.w3.org/2000/svg" xmlns:xlink="http://www.w3.org/1999/xlink" width="500" zoomAndPan="magnify" viewBox="0 0 375 374.999991" height="500" preserveAspectRatio="xMidYMid meet" version="1.0"><defs><g/><clipPath id="1bbf131203"><path d="M 78.277344 172.078125 L 298.222656 172.078125 L 298.222656 197.695312 L 78.277344 197.695312 Z M 78.277344 172.078125 " clip-rule="nonzero"/></clipPath></defs><rect x="-37.5" width="450" fill="#ffffff" y="-37.499999" height="449.999989" fill-opacity="1"/><rect x="-37.5" width="450" fill="#ffffff" y="-37.499999" height="449.999989" fill-opacity="1"/><path stroke-linecap="butt" transform="matrix(0.00181951, -0.749998, 0.749998, 0.00181951, 187.12366, 259.034016)" fill="none" stroke-linejoin="miter" d="M -0.000303268 0.501789 L 206.099269 0.501788 " stroke="#62b9cb" stroke-width="1" stroke-opacity="1" stroke-miterlimit="4"/><g fill="#62b9cb" fill-opacity="1"><g transform="translate(91.060354, 228.61954)"><g><path d="M 2.761719 0 L 27.539062 0 L 27.539062 -0.921875 C 19.617188 -0.921875 19.066406 -7.460938 19.066406 -25.605469 L 19.066406 -89.710938 C 24.683594 -91.738281 29.105469 -92.660156 35.921875 -92.660156 C 53.054688 -92.660156 63.832031 -83.265625 63.832031 -67.976562 C 63.832031 -56.921875 56.371094 -45.59375 44.855469 -45.59375 C 36.289062 -45.59375 32.054688 -50.84375 26.617188 -50.84375 C 24.960938 -50.84375 23.394531 -49.921875 23.394531 -47.710938 C 23.394531 -41.449219 33.160156 -41.078125 42.09375 -27.632812 C 56.644531 -5.804688 59.226562 0 63.460938 0 L 77.554688 0 L 77.554688 -0.921875 C 67.054688 -0.921875 58.488281 -17.316406 51.210938 -28.644531 C 43.75 -40.25 24.316406 -41.539062 24.316406 -47.527344 C 24.316406 -49.644531 25.882812 -49.921875 26.988281 -49.921875 C 30.855469 -49.921875 36.75 -44.027344 45.410156 -44.027344 C 61.4375 -44.027344 71.75 -55.449219 71.75 -68.066406 C 71.75 -83.082031 60.789062 -93.949219 41.171875 -93.949219 C 30.488281 -93.949219 23.949219 -92.109375 13.816406 -92.109375 L 2.761719 -92.109375 L 2.761719 -91.1875 C 10.683594 -91.1875 11.238281 -84.648438 11.238281 -66.5 L 11.238281 -25.605469 C 11.238281 -7.460938 10.683594 -0.921875 2.761719 -0.921875 Z M 2.761719 0 "/></g></g></g><g fill="#62b9cb" fill-opacity="1"><g transform="translate(198.357588, 228.61954)"><g><path d="M 5.527344 -46.054688 C 5.527344 -18.421875 23.578125 1.84375 46.515625 1.84375 C 59.6875 1.84375 70.644531 -4.789062 77.648438 -16.394531 L 77.648438 -29.660156 C 77.648438 -44.394531 64.476562 -46.054688 51.855469 -46.054688 C 40.25 -46.054688 29.015625 -44.578125 29.015625 -50.75 C 29.015625 -55.082031 34.265625 -57.015625 39.976562 -57.015625 C 49.09375 -57.015625 61.527344 -48.171875 72.582031 -48.171875 C 78.292969 -48.171875 83.355469 -51.394531 81.882812 -57.199219 C 81.882812 -57.199219 81.605469 -54.433594 75.160156 -54.433594 C 63.277344 -54.433594 55.726562 -62.816406 42 -62.816406 C 36.472656 -62.816406 28 -59.039062 28 -51.210938 C 28 -45.777344 33.25 -44.949219 39.976562 -44.949219 C 52.316406 -44.949219 69.726562 -47.621094 69.726562 -29.660156 L 69.726562 -16.671875 C 69.726562 -13.355469 62.726562 0.738281 46.515625 0.738281 C 28.738281 0.738281 13.816406 -19.160156 13.816406 -46.054688 C 13.816406 -72.949219 27.449219 -92.84375 46.515625 -92.84375 C 66.226562 -92.84375 71.84375 -77.371094 71.84375 -77.371094 L 72.765625 -77.371094 L 72.765625 -89.710938 C 65.671875 -92.109375 57.84375 -93.949219 46.515625 -93.949219 C 23.578125 -93.949219 5.527344 -73.6875 5.527344 -46.054688 Z M 5.527344 -46.054688 "/></g></g></g><g clip-path="url(#1bbf131203)"><path fill="#ffffff" d="M 78.277344 172.078125 L 298.222656 172.078125 L 298.222656 197.695312 L 78.277344 197.695312 Z M 78.277344 172.078125 " fill-opacity="1" fill-rule="nonzero"/></g><g fill="#62b9cb" fill-opacity="1"><g transform="translate(105.807288, 189.572433)"><g><path d="M 8.609375 0 L 6.28125 -3.265625 C 6.019531 -3.234375 5.75 -3.21875 5.46875 -3.21875 L 2.734375 -3.21875 L 2.734375 0 L 1.65625 0 L 1.65625 -10.171875 L 5.46875 -10.171875 C 6.757812 -10.171875 7.773438 -9.859375 8.515625 -9.234375 C 9.253906 -8.617188 9.625 -7.769531 9.625 -6.6875 C 9.625 -5.894531 9.421875 -5.222656 9.015625 -4.671875 C 8.609375 -4.117188 8.035156 -3.722656 7.296875 -3.484375 L 9.78125 0 Z M 5.4375 -4.140625 C 6.445312 -4.140625 7.21875 -4.363281 7.75 -4.8125 C 8.28125 -5.257812 8.546875 -5.882812 8.546875 -6.6875 C 8.546875 -7.507812 8.28125 -8.140625 7.75 -8.578125 C 7.21875 -9.015625 6.445312 -9.234375 5.4375 -9.234375 L 2.734375 -9.234375 L 2.734375 -4.140625 Z M 5.4375 -4.140625 "/></g></g></g><g fill="#62b9cb" fill-opacity="1"><g transform="translate(120.939575, 189.572433)"><g><path d="M 6.109375 0.09375 C 5.097656 0.09375 4.179688 -0.128906 3.359375 -0.578125 C 2.546875 -1.035156 1.90625 -1.65625 1.4375 -2.4375 C 0.976562 -3.226562 0.75 -4.109375 0.75 -5.078125 C 0.75 -6.054688 0.976562 -6.9375 1.4375 -7.71875 C 1.90625 -8.507812 2.546875 -9.128906 3.359375 -9.578125 C 4.179688 -10.035156 5.097656 -10.265625 6.109375 -10.265625 C 7.109375 -10.265625 8.015625 -10.039062 8.828125 -9.59375 C 9.640625 -9.144531 10.273438 -8.523438 10.734375 -7.734375 C 11.203125 -6.941406 11.4375 -6.054688 11.4375 -5.078125 C 11.4375 -4.109375 11.203125 -3.226562 10.734375 -2.4375 C 10.273438 -1.644531 9.640625 -1.023438 8.828125 -0.578125 C 8.015625 -0.128906 7.109375 0.09375 6.109375 0.09375 Z M 6.109375 -0.875 C 6.910156 -0.875 7.632812 -1.054688 8.28125 -1.421875 C 8.925781 -1.785156 9.429688 -2.285156 9.796875 -2.921875 C 10.171875 -3.566406 10.359375 -4.285156 10.359375 -5.078125 C 10.359375 -5.878906 10.171875 -6.597656 9.796875 -7.234375 C 9.429688 -7.878906 8.925781 -8.382812 8.28125 -8.75 C 7.632812 -9.113281 6.910156 -9.296875 6.109375 -9.296875 C 5.296875 -9.296875 4.5625 -9.113281 3.90625 -8.75 C 3.257812 -8.382812 2.75 -7.878906 2.375 -7.234375 C 2 -6.597656 1.8125 -5.878906 1.8125 -5.078125 C 1.8125 -4.285156 2 -3.566406 2.375 -2.921875 C 2.75 -2.285156 3.257812 -1.785156 3.90625 -1.421875 C 4.5625 -1.054688 5.296875 -0.875 6.109375 -0.875 Z M 6.109375 -0.875 "/></g></g></g><g fill="#62b9cb" fill-opacity="1"><g transform="translate(137.756123, 189.572433)"><g><path d="M 12.21875 -10.171875 L 12.21875 0 L 11.1875 0 L 11.1875 -8.140625 L 7.1875 -1.296875 L 6.6875 -1.296875 L 2.6875 -8.09375 L 2.6875 0 L 1.65625 0 L 1.65625 -10.171875 L 2.546875 -10.171875 L 6.953125 -2.625 L 11.328125 -10.171875 Z M 12.21875 -10.171875 "/></g></g></g><g fill="#62b9cb" fill-opacity="1"><g transform="translate(156.256932, 189.572433)"><g><path d="M 8.03125 -2.71875 L 2.375 -2.71875 L 1.140625 0 L 0.03125 0 L 4.671875 -10.171875 L 5.734375 -10.171875 L 10.390625 0 L 9.25 0 Z M 7.640625 -3.59375 L 5.203125 -9.046875 L 2.765625 -3.59375 Z M 7.640625 -3.59375 "/></g></g></g><g fill="#62b9cb" fill-opacity="1"><g transform="translate(171.302107, 189.572433)"><g><path d="M 1.65625 -10.171875 L 2.734375 -10.171875 L 2.734375 0 L 1.65625 0 Z M 1.65625 -10.171875 "/></g></g></g><g fill="#62b9cb" fill-opacity="1"><g transform="translate(180.321681, 189.572433)"><g><path d="M 10.15625 -10.171875 L 10.15625 0 L 9.265625 0 L 2.734375 -8.25 L 2.734375 0 L 1.65625 0 L 1.65625 -10.171875 L 2.546875 -10.171875 L 9.09375 -1.921875 L 9.09375 -10.171875 Z M 10.15625 -10.171875 "/></g></g></g><g fill="#62b9cb" fill-opacity="1"><g transform="translate(196.760723, 189.572433)"><g/></g></g><g fill="#62b9cb" fill-opacity="1"><g transform="translate(205.199516, 189.572433)"><g><path d="M 8.828125 -5.078125 L 9.859375 -5.078125 L 9.859375 -1.203125 C 9.378906 -0.785156 8.8125 -0.460938 8.15625 -0.234375 C 7.507812 -0.015625 6.832031 0.09375 6.125 0.09375 C 5.101562 0.09375 4.1875 -0.128906 3.375 -0.578125 C 2.5625 -1.023438 1.921875 -1.644531 1.453125 -2.4375 C 0.984375 -3.226562 0.75 -4.109375 0.75 -5.078125 C 0.75 -6.054688 0.984375 -6.941406 1.453125 -7.734375 C 1.921875 -8.523438 2.5625 -9.144531 3.375 -9.59375 C 4.1875 -10.039062 5.101562 -10.265625 6.125 -10.265625 C 6.90625 -10.265625 7.617188 -10.140625 8.265625 -9.890625 C 8.910156 -9.640625 9.457031 -9.273438 9.90625 -8.796875 L 9.234375 -8.109375 C 8.429688 -8.898438 7.410156 -9.296875 6.171875 -9.296875 C 5.347656 -9.296875 4.601562 -9.113281 3.9375 -8.75 C 3.28125 -8.382812 2.757812 -7.878906 2.375 -7.234375 C 2 -6.597656 1.8125 -5.878906 1.8125 -5.078125 C 1.8125 -4.285156 2 -3.566406 2.375 -2.921875 C 2.757812 -2.285156 3.28125 -1.785156 3.9375 -1.421875 C 4.59375 -1.054688 5.332031 -0.875 6.15625 -0.875 C 7.207031 -0.875 8.097656 -1.132812 8.828125 -1.65625 Z M 8.828125 -5.078125 "/></g></g></g><g fill="#62b9cb" fill-opacity="1"><g transform="translate(221.057776, 189.572433)"><g><path d="M 1.65625 -10.171875 L 2.734375 -10.171875 L 2.734375 0 L 1.65625 0 Z M 1.65625 -10.171875 "/></g></g></g><g fill="#62b9cb" fill-opacity="1"><g transform="translate(230.077344, 189.572433)"><g><path d="M 1.65625 -10.171875 L 2.734375 -10.171875 L 2.734375 -0.9375 L 8.421875 -0.9375 L 8.421875 0 L 1.65625 0 Z M 1.65625 -10.171875 "/></g></g></g><g fill="#62b9cb" fill-opacity="1"><g transform="translate(243.264027, 189.572433)"><g><path d="M 6.109375 0.09375 C 5.097656 0.09375 4.179688 -0.128906 3.359375 -0.578125 C 2.546875 -1.035156 1.90625 -1.65625 1.4375 -2.4375 C 0.976562 -3.226562 0.75 -4.109375 0.75 -5.078125 C 0.75 -6.054688 0.976562 -6.9375 1.4375 -7.71875 C 1.90625 -8.507812 2.546875 -9.128906 3.359375 -9.578125 C 4.179688 -10.035156 5.097656 -10.265625 6.109375 -10.265625 C 7.109375 -10.265625 8.015625 -10.039062 8.828125 -9.59375 C 9.640625 -9.144531 10.273438 -8.523438 10.734375 -7.734375 C 11.203125 -6.941406 11.4375 -6.054688 11.4375 -5.078125 C 11.4375 -4.109375 11.203125 -3.226562 10.734375 -2.4375 C 10.273438 -1.644531 9.640625 -1.023438 8.828125 -0.578125 C 8.015625 -0.128906 7.109375 0.09375 6.109375 0.09375 Z M 6.109375 -0.875 C 6.910156 -0.875 7.632812 -1.054688 8.28125 -1.421875 C 8.925781 -1.785156 9.429688 -2.285156 9.796875 -2.921875 C 10.171875 -3.566406 10.359375 -4.285156 10.359375 -5.078125 C 10.359375 -5.878906 10.171875 -6.597656 9.796875 -7.234375 C 9.429688 -7.878906 8.925781 -8.382812 8.28125 -8.75 C 7.632812 -9.113281 6.910156 -9.296875 6.109375 -9.296875 C 5.296875 -9.296875 4.5625 -9.113281 3.90625 -8.75 C 3.257812 -8.382812 2.75 -7.878906 2.375 -7.234375 C 2 -6.597656 1.8125 -5.878906 1.8125 -5.078125 C 1.8125 -4.285156 2 -3.566406 2.375 -2.921875 C 2.75 -2.285156 3.257812 -1.785156 3.90625 -1.421875 C 4.5625 -1.054688 5.296875 -0.875 6.109375 -0.875 Z M 6.109375 -0.875 "/></g></g></g><g fill="#62b9cb" fill-opacity="1"><g transform="translate(260.08057, 189.572433)"><g><path d="M 3.625 -9.234375 L 0.0625 -9.234375 L 0.0625 -10.171875 L 8.28125 -10.171875 L 8.28125 -9.234375 L 4.703125 -9.234375 L 4.703125 0 L 3.625 0 Z M 3.625 -9.234375 "/></g></g></g></svg>